{"title":"Lay the Favorite 2012 DVDRip 350MB x264 AAC - ViZNU [P2PDL]","uid":7862014,"size":381222661,"categoryP":"video","categoryS":"movies","magnet":"?xt=urn:btih:0b5344ce3a9ed306ec36ca0a0772bfce77b8b373&amp;dn=Lay+the+Favorite+2012+DVDRip+350MB+x264+AAC+-+ViZNU+%5BP2PDL%5D&amp;tr=udp%3A%2F%2Ftracker.openbittorrent.com%3A80&amp;tr=udp%3A%2F%2Fopen.demonii.com%3A1337&amp;tr=udp%3A%2F%2Ftracker.coppersurfer.tk%3A6969&amp;tr=udp%3A%2F%2Fexodus.desync.com%3A6969","seeders":0,"leechers":1,"uploader":"ValidusVyto","files":-1,"time":1353955422,"description":"_________________________  Visit us at _________________________\n  &lt;a href=&quot;\nhttp://tinym.eu&quot; rel=&quot;nofollow&quot; target=&quot;_NEW&quot;&gt;\nhttp://tinym.eu&lt;/a&gt;  ____________________________ &lt;a href=&quot; http://p2pdl.com&quot; rel=&quot;nofollow&quot; target=&quot;_NEW&quot;&gt; http://p2pdl.com&lt;/a&gt;\n\n\nLay the Favorite 2012 DVDRip 350MB x264 AAC - ViZNU [P2PDL]\n\n\t\t\t\t\t\nGenre: Comedy\nPlot: Beth, a Las Vegas cocktail waitress, falls in with Dink, a sports gambler who swoons for her as\nshe proves to be something of a gambling prodigy, earning the initial ire of Dink's wife, Tulip.     \nDirector: Stephen Frears\nStars: Rebecca Hall, Bruce Willis and Vince Vaughn.\nRated: R for language throughout, some sexual content, brief drug use, and nudity. &lt;a href=&quot;\nhttp://cinemahouse.in/movie/231/Lay+the+Favorite&quot; rel=&quot;nofollow&quot; target=&quot;_NEW&quot;&gt;\nhttp://cinemahouse.in/movie/231/Lay+the+Favorite&lt;/a&gt;\n\nGeneral\nFormat                         : MPEG-4\nFormat profile                 : Base Media\nCodec ID                       : isom\nFile size                      : 351 MiB\nDuration                       : 1h 33mn\nOverall bit rate mode          : Variable\nOverall bit rate               : 524 Kbps\n\nVideo\nID                             : 1\nFormat                         : AVC\nFormat/Info                    : Advanced Video Codec\nCodec ID                       : avc1\nCodec ID/Info                  : Advanced Video Coding\nDuration                       : 1h 33mn\nBit rate                       : 481 Kbps\nMaximum bit rate               : 2 211 Kbps\nWidth                          : 720 pixels\nHeight                         : 400 pixels\nDisplay aspect ratio           : 16:9\nFrame rate mode                : Constant\nFrame rate                     : 29.970 fps\nStream size                    : 322 MiB (92%)\nWriting library                : x264 core 125 r2208 d9d2288\n\nAud\nID                             : 2\nFormat                         : AAC\nFormat/Info                    : Advanced Audio Codec\nFormat profile                 : HE-AAC / LC\nCodec ID                       : 40\nDuration                       : 1h 33mn\nBit rate mode                  : Variable\nBit rate                       : 40.0 Kbps\nMaximum bit rate               : 48.7 Kbps\nChannel(s)                     : 2 channels\nChannel positions              : Front: L R\nSampling rate                  : 44.1 KHz / 22.05 KHz\nCompression mode               : Lossy\nStream size                    : 26.8 MiB (8%)\nLanguage                       : English\n\nScreens:\n &lt;a href=&quot;\nhttp://www.shotpix.com/images/21235310099683891596.png&quot; rel=&quot;nofollow&quot; target=&quot;_NEW&quot;&gt;\nhttp://www.shotpix.com/images/21235310099683891596.png&lt;/a&gt; &lt;a href=&quot;\nhttp://www.shotpix.com/images/37664986938015768474.png&quot; rel=&quot;nofollow&quot; target=&quot;_NEW&quot;&gt;\nhttp://www.shotpix.com/images/37664986938015768474.png&lt;/a&gt; &lt;a href=&quot;\nhttp://www.shotpix.com/images/69073425613476774113.png&quot; rel=&quot;nofollow&quot; target=&quot;_NEW&quot;&gt;\nhttp://www.shotpix.com/images/69073425613476774113.png&lt;/a&gt; &lt;a href=&quot;\nhttp://www.shotpix.com/images/44652278527515626766.png&quot; rel=&quot;nofollow&quot; target=&quot;_NEW&quot;&gt;\nhttp://www.shotpix.com/images/44652278527515626766.png&lt;/a&gt; &lt;a href=&quot;\nhttp://www.shotpix.com/images/39597823745172935735.png&quot; rel=&quot;nofollow&quot; target=&quot;_NEW&quot;&gt;\nhttp://www.shotpix.com/images/39597823745172935735.png&lt;/a&gt; &lt;a href=&quot;\nhttp://www.shotpix.com/images/41208456510739083867.png&quot; rel=&quot;nofollow&quot; target=&quot;_NEW&quot;&gt;\nhttp://www.shotpix.com/images/41208456510739083867.png&lt;/a&gt;\n\nSample:\n\n\n----------------------------------------------------------------------------------------------------\n\n\nRecommend to you to use latest version of VLC player. Install K-Lite Codec Pack or shark007 codecs\nin case of any kind of problem in playback (For non-VLC Media Player users). Alternatively, install\nCore AVC codecs, the fastest decoder that there is coupled with Community Center Codec Pack and play\non Windows Media Player Classic. Check sample to be sure.\nEnjoy!\n\n\nGreets to: Vitamin_X, a2zRG, srkfan, staff members at ExtraTorrent, TPB,KAT, 1337x, PublicHD,\nAhashare, BTScene, TorrentMafia, P2PDL, and all others.\n\n\nEncoder Notes: Looking For Early Access To Anything You Can Provide DVDScr, R5, DVDR, BluRay, Direct\nAudio, Early Music Releases, Seedboxes, Dedicated Servers anything u can provide, Advance / Promo CDs/\nDVDs. If You Got anything to offer contact me at &quot;&lt;a class=&quot;__cf_email__&quot; href=&quot;/cdn-cgi/l/email-protection&quot; data-cfemail=&quot;44343623042c31372c6a272b29&quot;&gt;[email&amp;#160;protected]&lt;/a&gt;&lt;script cf-hash='f9e31' type=&quot;text/javascript&quot;&gt;\n/* &lt;![CDATA[ */!function(){try{var t=&quot;currentScript&quot;in document?document.currentScript:function(){for(var t=document.getElementsByTagName(&quot;script&quot;),e=t.length;e--;)if(t[e].getAttribute(&quot;cf-hash&quot;))return t[e]}();if(t&amp;&amp;t.previousSibling){var e,r,n,i,c=t.previousSibling,a=c.getAttribute(&quot;data-cfemail&quot;);if(a){for(e=&quot;&quot;,r=parseInt(a.substr(0,2),16),n=2;a.length-n;n+=2)i=parseInt(a.substr(n,2),16)^r,e+=String.fromCharCode(i);e=document.createTextNode(e),c.parentNode.replaceChild(e,c)}}}catch(u){}}();/* ]]&gt; */&lt;/script&gt;&quot;.\n\n\nFacebook Fan Page: www . facebook . com / p2pdl","torrent":{"xt":"urn:btih:0b5344ce3a9ed306ec36ca0a0772bfce77b8b373","amp;dn":"Lay+the+Favorite+2012+DVDRip+350MB+x264+AAC+-+ViZNU+%5BP2PDL%5D","amp;tr":["udp%3A%2F%2Ftracker.openbittorrent.com%3A80","udp%3A%2F%2Fopen.demonii.com%3A1337","udp%3A%2F%2Ftracker.coppersurfer.tk%3A6969","udp%3A%2F%2Fexodus.desync.com%3A6969"],"infoHash":"0b5344ce3a9ed306ec36ca0a0772bfce77b8b373","infoHashBuffer":{"type":"Buffer","data":[11,83,68,206,58,158,211,6,236,54,202,10,7,114,191,206,119,184,179,115]},"announce":[],"urlList":[]}}